#!OML:ASF I:\Random Stuff\random\construction\7_22_03\Session 2\subj1.ASF
:FULLY-SPECIFIED
:DEGREES
631
root -3.81915 17.8901 1.71174 -158.556 88.244 -168.27
lowerback 4.98141 -1.42178 2.79916
upperback -1.15366 -1.41593 4.981
thorax -3.93854 -0.663266 3.71115
lowerneck -15.0301 -14.4636 -12.2863
upperneck 29.5886 -21.4825 13.516
head 16.0404 -8.64371 3.44775
rclavicle -1.19271e-015 1.59028e-015
rhumerus -12.6772 -26.388 -71.815
rradius 31.5859
rwrist -14.0902
rhand -41.1122 23.8919
rfingers 7.12502
rthumb -14.0397 -5.61391
lclavicle -1.19271e-015 1.59028e-015
lhumerus -30.1309 -11.302 99.626
lradius 43.0848
lwrist 30.1757
lhand -18.6041 57.3703
lfingers 7.12502
lthumb 7.68724 -272.789
rfemur -8.86694 3.49185 20.5207
rtibia 10.8146
rfoot -5.98219 -21.2009
rtoes -9.89157
lfemur -6.76493 -21.8726 -9.87574
ltibia 2.80834
lfoot -4.98075 22.7432
ltoes -31.473
632
root -3.81888 17.8914 1.71041 -157.186 88.321 -166.895
lowerback 4.94359 -1.4375 2.79476
upperback -1.13125 -1.44458 4.93526
thorax -3.89344 -0.678919 3.66611
lowerneck -15.0974 -14.4389 -12.2248
upperneck 29.6322 -21.4476 13.461
head 16.0517 -8.62466 3.42127
rclavicle 9.74045e-015 -6.83819e-014
rhumerus -12.8627 -26.221 -71.9157
rradius 31.1978
rwrist -12.5319
rhand -41.4743 24.3873
rfingers 7.12502
rthumb -14.3887 -5.09399
lclavicle 9.74045e-015 -6.83819e-014
lhumerus -29.9649 -11.4456 99.4831
lradius 43.1049
lwrist 30.8886
lhand -18.4317 56.9913
lfingers 7.12502
lthumb 7.85369 -273.175
rfemur -8.88245 3.54331 20.5236
rtibia 10.8156
rfoot -6.05632 -21.148
rtoes -9.31817
lfemur -6.7615 -21.7749 -9.88319
ltibia 2.88469
lfoot -4.97145 22.7074
ltoes -31.0369
633
root -3.81858 17.8918 1.70906 -155.356 88.3855 -165.055
lowerback 4.89363 -1.44961 2.81336
upperback -1.0936 -1.46974 4.86924
thorax -3.82691 -0.693834 3.58578
lowerneck -15.1512 -14.4133 -12.2319
upperneck 29.6317 -21.4496 13.5847
head 16.0882 -8.60784 3.47073
rclavicle 1.68967e-014 5.08889e-014
rhumerus -13.2588 -26.0423 -72.048
rradius 31.1459
rwrist -10.9222
rhand -41.9489 25.1769
rfingers 7.12502
rthumb -14.8459 -4.27119
lclavicle 1.68967e-014 5.08889e-014
lhumerus -29.8703 -11.5354 99.2751
lradius 43.1491
lwrist 31.8449
lhand -18.1365 56.6199
lfingers 7.12502
lthumb 8.13861 -273.557
rfemur -8.92853 3.54566 20.5549
rtibia 10.8907
rfoot -6.04095 -21.0866
rtoes -9.24669
lfemur -6.66078 -21.6835 -9.86686
ltibia 2.74646
lfoot -4.88108 22.6567
ltoes -30.8552
634
root -3.81949 17.892 1.70737 -153.978 88.4217 -163.651
lowerback 4.8933 -1.45787 2.83082
upperback -1.0672 -1.48714 4.78842
thorax -3.80086 -0.705116 3.492
lowerneck -15.2279 -14.362 -12.1144
upperneck 29.6252 -21.4125 13.6179
head 16.085 -8.57213 3.47213
rclavicle 1.37161e-014 -2.8625e-014
rhumerus -13.9416 -25.398 -72.1687
rradius 31.5126
rwrist -9.69941
rhand -42.5616 26.2172
rfingers 7.12502
rthumb -15.4361 -3.18643
lclavicle 1.37161e-014 -2.8625e-014
lhumerus -29.7867 -11.5036 99.06
lradius 43.1264
lwrist 32.8863
lhand -17.8843 56.3256
lfingers 7.12502
lthumb 8.38196 -273.861
rfemur -8.9842 3.512 20.5762
rtibia 11.0208
rfoot -6.10092 -21.0098
rtoes -9.08248
lfemur -6.54071 -21.6245 -9.84977
ltibia 2.552
lfoot -4.76049 22.6308
ltoes -30.9031
635
root -3.82198 17.8919 1.70544 -154.755 88.4672 -164.352
lowerback 4.99214 -1.47988 2.75206
upperback -1.01893 -1.52471 4.7114
thorax -3.80463 -0.724453 3.46071
lowerneck -15.4008 -14.2908 -11.9734
upperneck 29.6125 -21.3334 13.6127
head 16.0826 -8.51736 3.45779
rclavicle 1.94809e-014 -4.13472e-014
rhumerus -14.7498 -24.1038 -72.3174
rradius 32.3199
rwrist -9.02133
rhand -43.3167 27.0083
rfingers 7.12502
rthumb -16.1633 -2.33782
lclavicle 1.94809e-014 -4.13472e-014
lhumerus -29.6653 -11.3673 98.8161
lradius 43.0984
lwrist 33.9248
lhand -17.7271 56.0783
lfingers 7.12502
lthumb 8.53366 -274.114
rfemur -9.01293 3.47914 20.5162
rtibia 11.203
rfoot -6.33754 -20.9209
rtoes -8.14451
lfemur -6.37622 -21.5924 -9.9211
ltibia 2.37875
lfoot -4.62717 22.6203
ltoes -30.9886
636
root -3.82482 17.8904 1.70287 -156.082 88.549 -165.582
lowerback 5.12177 -1.50436 2.60771
upperback -0.942346 -1.56887 4.65211
thorax -3.79379 -0.745392 3.48575
lowerneck -15.6292 -14.2211 -11.897
upperneck 29.5865 -21.2495 13.6487
head 16.1027 -8.46058 3.46729
rclavicle -6.16232e-015 -5.40694e-014
rhumerus -15.6535 -22.2977 -72.5235
rradius 33.4772
rwrist -8.67623
rhand -44.1889 27.4327
rfingers 7.12502
rthumb -17.003 -1.84313
lclavicle -6.16232e-015 -5.40694e-014
lhumerus -29.5459 -10.9946 98.5386
lradius 43.0751
lwrist 34.6481
lhand -17.4749 55.9174
lfingers 7.12502
lthumb 8.7771 -274.285
rfemur -9.08859 3.39735 20.4438
rtibia 11.4832
rfoot -6.46233 -20.7975
rtoes -7.90636
lfemur -6.06575 -21.5383 -10.0393
ltibia 2.00623
lfoot -4.42248 22.6016
ltoes -31.0435
637
root -3.82886 17.8891 1.69978 -157.694 88.6231 -167.137
lowerback 5.2236 -1.50218 2.48817
upperback -0.869527 -1.57834 4.57513
thorax -3.77365 -0.749972 3.4747
lowerneck -15.8409 -14.1841 -11.815
upperneck 29.5353 -21.2069 13.6645
head 16.1095 -8.42519 3.45721
rclavicle 6.16232e-015 -3.18055e-014
rhumerus -16.8277 -19.78 -72.7541
rradius 35.0742
rwrist -9.00161
rhand -45.1662 27.6563
rfingers 7.12502
rthumb -17.9435 -1.53596
lclavicle 6.16232e-015 -3.18055e-014
lhumerus -29.4801 -10.5854 98.2815
lradius 43.068
lwrist 34.9917
lhand -17.2474 55.9621
lfingers 7.12502
lthumb 8.99663 -274.25
rfemur -9.25909 3.22387 20.3839
rtibia 11.8496
rfoot -6.52318 -20.6181
rtoes -8.22402
lfemur -5.67242 -21.4856 -10.1383
ltibia 1.35575
lfoot -4.09687 22.5877
ltoes -31.4122
638
root -3.83477 17.8884 1.69709 -160.279 88.6839 -169.687
lowerback 5.3306 -1.50569 2.37419
upperback -0.806272 -1.59668 4.46451
thorax -3.76702 -0.759871 3.42663
lowerneck -16.0255 -14.1351 -11.774
upperneck 29.4444 -21.1675 13.7857
head 16.1166 -8.38556 3.49764
rclavicle -2.0276e-014 0
rhumerus -18.1182 -16.8836 -73.1101
rradius 36.8464
rwrist -9.66366
rhand -46.0786 28.2015
rfingers 7.12502
rthumb -18.8213 -0.907945
lclavicle -2.0276e-014 0
lhumerus -29.5499 -10.3598 98.0073
lradius 43.1694
lwrist 35.2147
lhand -17.2808 56.1333
lfingers 7.12502
lthumb 8.9644 -274.077
rfemur -9.46794 2.99574 20.3035
rtibia 12.2745
rfoot -6.72817 -20.391
rtoes -8.13948
lfemur -4.9747 -21.4482 -10.2328
ltibia 6.36111e-015
lfoot -3.36325 22.5842
ltoes -31.763
639
root -3.84125 17.8864 1.69587 -163.073 88.7705 -172.448
lowerback 5.43132 -1.51823 2.21267
upperback -0.744898 -1.6318 4.34288
thorax -3.75702 -0.777538 3.39516
lowerneck -16.1846 -14.037 -11.729
upperneck 29.3078 -21.0753 13.9795
head 16.0989 -8.31856 3.58195
rclavicle -1.0138e-014 1.43125e-014
rhumerus -19.2714 -14.4464 -73.6058
rradius 38.3411
rwrist -9.70744
rhand -46.6415 29.3418
rfingers 7.12502
rthumb -19.3626 0.285784
lclavicle -1.0138e-014 1.43125e-014
lhumerus -29.6735 -10.1609 97.7054
lradius 43.242
lwrist 35.2396
lhand -17.4581 56.2588
lfingers 7.12502
lthumb 8.79331 -273.944
rfemur -9.7006 2.76817 20.2195
rtibia 12.7345
rfoot -6.9299 -20.1517
rtoes -8.22889
lfemur -4.95336 -21.378 -10.3397
ltibia 1.98785e-014
lfoot -3.30889 22.5363
ltoes -31.504
640
root -3.848 17.8831 1.69534 -167.087 88.8857 -176.45
lowerback 5.51482 -1.52352 1.99617
upperback -0.684036 -1.66273 4.21547
thorax -3.73652 -0.792303 3.38778
lowerneck -16.4529 -13.9189 -11.4957
upperneck 29.1939 -20.9152 13.9131
head 16.0305 -8.23099 3.53852
rclavicle 1.45113e-014 -2.06736e-014
rhumerus -20.3883 -12.2285 -74.1748
rradius 39.6687
rwrist -9.46107
rhand -47.0743 30.821
rfingers 7.12502
rthumb -19.7787 1.80728
lclavicle 1.45113e-014 -2.06736e-014
lhumerus -29.6665 -9.80883 97.396
lradius 43.1011
lwrist 34.8643
lhand -17.7996 56.5
lfingers 7.12502
lthumb 8.46371 -273.69
rfemur -9.96387 2.51283 20.1172
rtibia 13.1757
rfoot -7.0682 -19.8681
rtoes -8.42574
lfemur -4.95166 -21.2774 -10.4632
ltibia 2.22639e-014
lfoot -3.22573 22.4596
ltoes -31.4473
641
root -3.85558 17.88 1.69341 -170.141 88.9894 -179.504
lowerback 5.62146 -1.53203 1.83594
upperback -0.643688 -1.69182 4.08664
thorax -3.75217 -0.806953 3.34861
lowerneck -16.7787 -13.8168 -11.216
upperneck 29.1065 -20.7492 13.7104
head 15.957 -8.15014 3.42914
rclavicle 0 4.13472e-014
rhumerus -21.6063 -9.75225 -74.8219
rradius 40.9635
rwrist -9.47816
rhand -47.5851 32.2831
rfingers 7.12502
rthumb -20.2697 3.32081
lclavicle 0 4.13472e-014
lhumerus -29.723 -9.5297 97.09
lradius 42.9433
lwrist 34.3603
lhand -18.1792 56.6812
lfingers 7.12502
lthumb 8.0974 -273.494
rfemur -10.226 2.26426 20.0469
rtibia 13.5645
rfoot -7.22888 -19.5995
rtoes -8.24408
lfemur -4.97133 -21.174 -10.5462
ltibia -1.59028e-015
lfoot -3.13235 22.4115
ltoes -31.8661
642
root -3.86382 17.8773 1.69045 -168.774 89.0698 -178.129
lowerback 5.76335 -1.54069 1.77555
upperback -0.615409 -1.70998 3.97978
thorax -3.80316 -0.817117 3.27694
lowerneck -17.1123 -13.7259 -11.0871
upperneck 29.0725 -20.6117 13.6441
head 15.9629 -8.07519 3.39462
rclavicle 1.15295e-014 -9.54166e-015
rhumerus -22.8346 -7.22114 -75.5168
rradius 42.0941
rwrist -9.44835
rhand -47.8136 33.1689
rfingers 7.12502
rthumb -20.4893 4.23001
lclavicle 1.15295e-014 -9.54166e-015
lhumerus -29.9358 -9.45588 96.8364
lradius 42.8548
lwrist 33.9533
lhand -18.6116 56.704
lfingers 7.12502
lthumb 7.68003 -273.455
rfemur -10.4318 2.08558 20.061
rtibia 13.8784
rfoot -7.43605 -19.3952
rtoes -7.68647
lfemur -5.58769 -21.0716 -10.5279
ltibia 1.19578
lfoot -3.69729 22.3543
ltoes -32.1774
643
root -3.87222 17.8752 1.68718 -167.39 89.1488 -176.75
lowerback 5.88122 -1.54863 1.68459
upperback -0.57423 -1.7299 3.8933
thorax -3.82563 -0.827239 3.24274
lowerneck -17.5789 -13.6191 -10.9671
upperneck 29.0842 -20.4367 13.5444
head 16.0105 -7.98082 3.35053
rclavicle 1.15295e-014 -4.45278e-014
rhumerus -23.9968 -4.57049 -76.2454
rradius 43.0462
rwrist -9.49224
rhand -47.6218 33.3274
rfingers 7.12502
rthumb -20.305 4.36882
lclavicle 1.15295e-014 -4.45278e-014
lhumerus -30.0797 -9.38572 96.6166
lradius 42.6076
lwrist 33.572
lhand -19.1158 56.9994
lfingers 7.12502
lthumb 7.19339 -273.143
rfemur -10.5824 1.90892 20.0691
rtibia 14.077
rfoot -7.58648 -19.1588
rtoes -7.33363
lfemur -6.18052 -20.9689 -10.5097
ltibia 2.33883
lfoot -4.25384 22.2921
ltoes -32.3579
644
root -3.88088 17.8736 1.68293 -166.814 89.2624 -176.222
lowerback 5.95128 -1.54747 1.56207
upperback -0.551134 -1.74225 3.80005
thorax -3.83948 -0.833222 3.21742
lowerneck -17.4481 -13.3081 -10.7096
upperneck 28.5123 -19.9352 13.4325
head 15.5685 -7.80754 3.37616
rclavicle -2.04748e-014 5.00937e-014
rhumerus -25.1788 -1.8215 -77.024
rradius 43.8485
rwrist -9.78316
rhand -46.8414 33.0293
rfingers 7.12502
rthumb -19.5548 3.99267
lclavicle -2.04748e-014 5.00937e-014
lhumerus -30.1994 -9.33132 96.3995
lradius 42.2035
lwrist 33.1397
lhand -19.3969 57.2285
lfingers 7.12502
lthumb 6.92199 -272.905
rfemur -10.7464 1.70042 20.0752
rtibia 14.1726
rfoot -7.4195 -18.9111
rtoes -8.60681
lfemur -6.65117 -20.8318 -10.5125
ltibia 3.178
lfoot -4.65067 22.2529
ltoes -32.4245
